<svg width="28" height="30" viewBox="0 0 28 30" fill="none" xmlns="http://www.w3.org/2000/svg">
<path d="M26.5909 21.8182H21.1364C20.9555 21.8182 20.7821 21.89 20.6542 22.0179C20.5264 22.1457 20.4545 22.3192 20.4545 22.5V24.5455H17.6045C17.4639 24.1476 17.2036 23.803 16.8594 23.5588C16.5151 23.3147 16.1038 23.183 15.6818 23.1818H14.3182V21.1364C18.7364 21.0068 23.1818 19.5886 23.1818 17.0455V4.09091C23.1818 1.43182 18.2659 0 13.6364 0C9.00682 0 4.09091 1.43182 4.09091 4.09091V17.0455C4.09091 19.575 8.53636 20.9932 12.9545 21.1364V23.1818H11.5909C11.1689 23.183 10.7576 23.3147 10.4134 23.5588C10.0691 23.803 9.80885 24.1476 9.66818 24.5455H6.81818V22.5C6.81818 22.3192 6.74635 22.1457 6.61848 22.0179C6.49062 21.89 6.31719 21.8182 6.13636 21.8182H0.681818C0.500989 21.8182 0.327566 21.89 0.1997 22.0179C0.0718343 22.1457 0 22.3192 0 22.5V27.2727C0 27.4536 0.0718343 27.627 0.1997 27.7548C0.327566 27.8827 0.500989 27.9545 0.681818 27.9545H2.72727V28.6364H1.36364V30H5.45455V28.6364H4.09091V27.9545H6.13636C6.31719 27.9545 6.49062 27.8827 6.61848 27.7548C6.74635 27.627 6.81818 27.4536 6.81818 27.2727V25.9091H9.66818C9.80885 26.307 10.0691 26.6516 10.4134 26.8957C10.7576 27.1399 11.1689 27.2715 11.5909 27.2727H15.6818C16.1038 27.2715 16.5151 27.1399 16.8594 26.8957C17.2036 26.6516 17.4639 26.307 17.6045 25.9091H20.4545V27.2727C20.4545 27.4536 20.5264 27.627 20.6542 27.7548C20.7821 27.8827 20.9555 27.9545 21.1364 27.9545H23.1818V28.6364H21.8182V30H25.9091V28.6364H24.5455V27.9545H26.5909C26.7717 27.9545 26.9452 27.8827 27.073 27.7548C27.2009 27.627 27.2727 27.4536 27.2727 27.2727V22.5C27.2727 22.3192 27.2009 22.1457 27.073 22.0179C26.9452 21.89 26.7717 21.8182 26.5909 21.8182ZM13.6364 1.36364C18.7023 1.36364 21.8182 2.95227 21.8182 4.09091C21.8182 5.22955 18.7023 6.81818 13.6364 6.81818C8.57046 6.81818 5.45455 5.22955 5.45455 4.09091C5.45455 2.95227 8.57046 1.36364 13.6364 1.36364ZM5.45455 6.27273C7.23409 7.5 10.5 8.18182 13.6364 8.18182C16.7727 8.18182 20.0386 7.5 21.8182 6.27273V8.86364C21.8182 10.0023 18.7023 11.5909 13.6364 11.5909C8.57046 11.5909 5.45455 10.0023 5.45455 8.86364V6.27273ZM5.45455 11.0455C7.23409 12.2727 10.5 12.9545 13.6364 12.9545C16.7727 12.9545 20.0386 12.2727 21.8182 11.0455V12.9545C21.8182 14.0932 18.7023 15.6818 13.6364 15.6818C8.57046 15.6818 5.45455 14.0932 5.45455 12.9545V11.0455ZM5.45455 17.0455V15.1364C7.23409 16.3636 10.5 17.0455 13.6364 17.0455C16.7727 17.0455 20.0386 16.3636 21.8182 15.1364V17.0455C21.8182 18.1841 18.7023 19.7727 13.6364 19.7727C8.57046 19.7727 5.45455 18.1841 5.45455 17.0455ZM5.45455 26.5909H1.36364V23.1818H5.45455V26.5909ZM15.6818 25.9091H11.5909C11.4101 25.9091 11.2367 25.8373 11.1088 25.7094C10.9809 25.5815 10.9091 25.4081 10.9091 25.2273C10.9091 25.0464 10.9809 24.873 11.1088 24.7452C11.2367 24.6173 11.4101 24.5455 11.5909 24.5455H15.6818C15.8626 24.5455 16.0361 24.6173 16.1639 24.7452C16.2918 24.873 16.3636 25.0464 16.3636 25.2273C16.3636 25.4081 16.2918 25.5815 16.1639 25.7094C16.0361 25.8373 15.8626 25.9091 15.6818 25.9091ZM25.9091 26.5909H21.8182V23.1818H25.9091V26.5909Z" fill="white"/>
</svg>
