<svg width="30" height="30" viewBox="0 0 30 30" fill="none" xmlns="http://www.w3.org/2000/svg">
<path fill-rule="evenodd" clip-rule="evenodd" d="M2.5 0C1.83696 0 1.20107 0.263393 0.732233 0.732233C0.263393 1.20107 0 1.83696 0 2.5V27.5C0 28.163 0.263392 28.7989 0.732233 29.2678C1.20108 29.7366 1.83696 30 2.5 30H11.25C11.9404 30 12.5 29.4404 12.5 28.75C12.5 28.0596 11.9404 27.5 11.25 27.5H2.5L2.5 2.5L11.25 2.5C11.9404 2.5 12.5 1.94036 12.5 1.25C12.5 0.559644 11.9404 0 11.25 0H2.5ZM21.3055 7.5535C21.7937 7.06541 22.5851 7.06551 23.0732 7.55373L29.634 14.1162C30.122 14.6044 30.122 15.3956 29.634 15.8838L23.0732 22.4463C22.5851 22.9345 21.7937 22.9346 21.3055 22.4465C20.8172 21.9584 20.8171 21.167 21.3052 20.6787L25.7328 16.25H11.25C10.5596 16.25 10 15.6904 10 15C10 14.3096 10.5596 13.75 11.25 13.75H25.7328L21.3052 9.32127C20.8171 8.83305 20.8172 8.04159 21.3055 7.5535Z" fill="white"/>
</svg>
