<svg width="30" height="30" viewBox="0 0 30 30" fill="none" xmlns="http://www.w3.org/2000/svg">
<path d="M9.16667 0H4.16667C3.0616 0 2.00179 0.438987 1.22039 1.22039C0.438987 2.00179 0 3.0616 0 4.16667C0 5.27174 0.438987 6.33154 1.22039 7.11294C2.00179 7.89435 3.0616 8.33333 4.16667 8.33333H9.16667C10.2717 8.33333 11.3315 7.89435 12.1129 7.11294C12.8943 6.33154 13.3333 5.27174 13.3333 4.16667C13.3333 3.0616 12.8943 2.00179 12.1129 1.22039C11.3315 0.438987 10.2717 0 9.16667 0ZM9.16667 6.66667H4.16667C3.50363 6.66667 2.86774 6.40328 2.3989 5.93443C1.93006 5.46559 1.66667 4.82971 1.66667 4.16667C1.66667 3.50363 1.93006 2.86774 2.3989 2.3989C2.86774 1.93006 3.50363 1.66667 4.16667 1.66667H9.16667C9.82971 1.66667 10.4656 1.93006 10.9344 2.3989C11.4033 2.86774 11.6667 3.50363 11.6667 4.16667C11.6667 4.82971 11.4033 5.46559 10.9344 5.93443C10.4656 6.40328 9.82971 6.66667 9.16667 6.66667ZM9.16667 11.6667H4.16667C3.0616 11.6667 2.00179 12.1057 1.22039 12.8871C0.438987 13.6685 0 14.7283 0 15.8333V25.8333C0 26.9384 0.438987 27.9982 1.22039 28.7796C2.00179 29.561 3.0616 30 4.16667 30H9.16667C10.2717 30 11.3315 29.561 12.1129 28.7796C12.8943 27.9982 13.3333 26.9384 13.3333 25.8333V15.8333C13.3333 14.7283 12.8943 13.6685 12.1129 12.8871C11.3315 12.1057 10.2717 11.6667 9.16667 11.6667ZM11.6667 25.8333C11.6667 26.4964 11.4033 27.1323 10.9344 27.6011C10.4656 28.0699 9.82971 28.3333 9.16667 28.3333H4.16667C3.50363 28.3333 2.86774 28.0699 2.3989 27.6011C1.93006 27.1323 1.66667 26.4964 1.66667 25.8333V15.8333C1.66667 15.1703 1.93006 14.5344 2.3989 14.0656C2.86774 13.5967 3.50363 13.3333 4.16667 13.3333H9.16667C9.82971 13.3333 10.4656 13.5967 10.9344 14.0656C11.4033 14.5344 11.6667 15.1703 11.6667 15.8333V25.8333ZM25.8333 21.6667H20.8333C19.7283 21.6667 18.6685 22.1057 17.8871 22.8871C17.1057 23.6685 16.6667 24.7283 16.6667 25.8333C16.6667 26.9384 17.1057 27.9982 17.8871 28.7796C18.6685 29.561 19.7283 30 20.8333 30H25.8333C26.9384 30 27.9982 29.561 28.7796 28.7796C29.561 27.9982 30 26.9384 30 25.8333C30 24.7283 29.561 23.6685 28.7796 22.8871C27.9982 22.1057 26.9384 21.6667 25.8333 21.6667ZM25.8333 28.3333H20.8333C20.1703 28.3333 19.5344 28.0699 19.0656 27.6011C18.5967 27.1323 18.3333 26.4964 18.3333 25.8333C18.3333 25.1703 18.5967 24.5344 19.0656 24.0656C19.5344 23.5967 20.1703 23.3333 20.8333 23.3333H25.8333C26.4964 23.3333 27.1323 23.5967 27.6011 24.0656C28.0699 24.5344 28.3333 25.1703 28.3333 25.8333C28.3333 26.4964 28.0699 27.1323 27.6011 27.6011C27.1323 28.0699 26.4964 28.3333 25.8333 28.3333ZM25.8333 0H20.8333C19.7283 0 18.6685 0.438987 17.8871 1.22039C17.1057 2.00179 16.6667 3.0616 16.6667 4.16667V14.1667C16.6667 15.2717 17.1057 16.3315 17.8871 17.1129C18.6685 17.8943 19.7283 18.3333 20.8333 18.3333H25.8333C26.9384 18.3333 27.9982 17.8943 28.7796 17.1129C29.561 16.3315 30 15.2717 30 14.1667V4.16667C30 3.0616 29.561 2.00179 28.7796 1.22039C27.9982 0.438987 26.9384 0 25.8333 0ZM28.3333 14.1667C28.3333 14.8297 28.0699 15.4656 27.6011 15.9344C27.1323 16.4033 26.4964 16.6667 25.8333 16.6667H20.8333C20.1703 16.6667 19.5344 16.4033 19.0656 15.9344C18.5967 15.4656 18.3333 14.8297 18.3333 14.1667V4.16667C18.3333 3.50363 18.5967 2.86774 19.0656 2.3989C19.5344 1.93006 20.1703 1.66667 20.8333 1.66667H25.8333C26.4964 1.66667 27.1323 1.93006 27.6011 2.3989C28.0699 2.86774 28.3333 3.50363 28.3333 4.16667V14.1667Z" fill="white"/>
</svg>
