<svg width="34" height="34" viewBox="0 0 34 34" fill="none" xmlns="http://www.w3.org/2000/svg">
<path d="M28.3095 20.6557C28.1094 21.2637 27.8714 21.8535 27.5772 22.4145L29.4027 26.7881L26.788 29.4028L22.4144 27.5773C21.8534 27.8715 21.2545 28.1193 20.6464 28.3187L18.849 32.6923H15.1508L13.3534 28.3187C12.744 28.1226 12.1525 27.8745 11.5854 27.5773L7.21185 29.4028L4.59712 26.7881L6.42266 22.4145C6.12842 21.8535 5.89042 21.2637 5.69035 20.6557L1.30762 18.8491V15.1601L5.69035 13.3535C5.89042 12.7454 6.12842 12.1557 6.42266 11.5947L4.59712 7.21192L7.21185 4.607L11.5854 6.43254C12.1524 6.13506 12.744 5.88677 13.3534 5.69042L15.1508 1.30769L18.849 1.3175L20.6464 5.69042C21.2545 5.8905 21.8534 6.13766 22.4144 6.43254L26.788 4.607L29.4027 7.21192L27.5772 11.5947C27.8714 12.1557 28.1094 12.7454 28.3095 13.3535L32.6922 15.1601V18.8491L28.3095 20.6557Z" stroke="white" stroke-width="2" stroke-miterlimit="10" stroke-linecap="round" stroke-linejoin="round"/>
<path d="M16.9999 24.5748C21.1833 24.5748 24.5747 21.1834 24.5747 17C24.5747 12.8165 21.1833 9.42519 16.9999 9.42519C12.8164 9.42519 9.42505 12.8165 9.42505 17C9.42505 21.1834 12.8164 24.5748 16.9999 24.5748Z" stroke="white" stroke-width="2" stroke-miterlimit="10" stroke-linecap="round" stroke-linejoin="round"/>
<path d="M11.7729 22.4773C12.102 21.3452 12.7898 20.3507 13.733 19.6434C14.6761 18.9361 15.8235 18.5543 17.0024 18.5555C18.1799 18.5553 19.3257 18.9366 20.2682 19.6423C21.2108 20.348 21.8993 21.3402 22.2306 22.4701" stroke="white" stroke-width="2" stroke-miterlimit="10" stroke-linecap="round" stroke-linejoin="round"/>
<path d="M17.0026 16.335C18.0859 16.335 18.9641 15.4568 18.9641 14.3735C18.9641 13.2902 18.0859 12.412 17.0026 12.412C15.9192 12.412 15.041 13.2902 15.041 14.3735C15.041 15.4568 15.9192 16.335 17.0026 16.335Z" stroke="white" stroke-width="2" stroke-miterlimit="10" stroke-linecap="round" stroke-linejoin="round"/>
</svg>
